<svg class = "sidebar__logo-icon" width="22.21" height="22" viewBox="0 0 23 22" fill="none" xmlns="http://www.w3.org/2000/svg">
            <path d="M21.0771 0H1.13252C0.507046 0 0 0.502293 0 1.1219V10.5297C0 11.1493 0.507046 11.6516 1.13252 11.6516H5.22456V20.8795C5.22419 21.1769 5.3432 21.4623 5.55537 21.6727C5.76754 21.8831 6.05546 22.0014 6.3557 22.0014H15.8525C16.478 22.0014 16.985 21.4991 16.985 20.8795V11.6557H21.0771C21.3773 11.6557 21.6652 11.5375 21.8774 11.327C22.0896 11.1166 22.2086 10.8312 22.2082 10.5338V1.1219C22.2086 0.824482 22.0896 0.539118 21.8774 0.328681C21.6652 0.118244 21.3773 0 21.0771 0ZM1.31272 1.30179H10.4477V10.3512H1.31272V1.30179ZM15.6723 20.701H6.53729V11.6557H15.6723V20.701ZM20.8955 10.3512H11.7605V1.30179H20.8955V10.3512Z" fill="var(--main-text)" />
            <path d="M7.51893 7.32455C7.77762 7.56505 8.18231 7.55869 8.43317 7.31018C8.68403 7.06167 8.69045 6.66077 8.44768 6.40451L6.35037 4.32686C6.0932 4.07448 5.67879 4.07448 5.42162 4.32686L3.31876 6.40451C3.14397 6.56701 3.07238 6.81092 3.13197 7.04093C3.19156 7.27094 3.37287 7.45055 3.60506 7.50959C3.83725 7.56862 4.08347 7.4977 4.24751 7.32455L5.88045 5.70692L7.51893 7.32455Z" fill="var(--main-text)" />
            <path d="M14.6951 7.32455L16.328 5.70692L17.9609 7.32455C18.2196 7.56505 18.6243 7.55869 18.8752 7.31018C19.1261 7.06167 19.1325 6.66077 18.8897 6.40451L16.7924 4.32686C16.5352 4.07448 16.1208 4.07448 15.8636 4.32686L13.7663 6.40451C13.5235 6.66077 13.53 7.06167 13.7808 7.31018C14.0317 7.55869 14.4364 7.56505 14.6951 7.32455Z" fill="var(--main-text)" />
            <path d="M9.4705 14.6767C9.21145 14.4366 8.80675 14.4435 8.55626 14.6924C8.30577 14.9413 8.29996 15.3422 8.54314 15.5981L10.6404 17.6744C10.7635 17.7966 10.9306 17.8654 11.1048 17.8654C11.2791 17.8654 11.4462 17.7966 11.5692 17.6744L13.6665 15.5981C13.8327 15.4338 13.8977 15.1941 13.8371 14.9694C13.7765 14.7446 13.5995 14.569 13.3727 14.5087C13.1459 14.4483 12.9039 14.5123 12.7378 14.6767L11.1048 16.2957L9.4705 14.6767Z" fill="var(--main-text)" />
         </svg>
